# Blender v2.78 (sub 0) OBJ File: ''
# www.blender.org
o Cube.007
v -0.290217 0.593418 -0.145045
v -0.290217 0.535902 -0.196513
v -0.290217 0.535902 -0.145045
v 0.249835 0.593418 -0.196513
v 0.294501 0.535902 -0.196513
v 0.249835 0.535902 -0.196513
v 0.294501 0.593418 0.177466
v 0.294501 0.535902 0.221922
v 0.294501 0.535902 0.177466
v -0.235200 0.593418 0.221922
v -0.290217 0.535902 0.221922
v -0.235200 0.535902 0.221922
v -0.235200 0.268294 0.221922
v -0.235200 0.000686 0.177466
v -0.235200 0.268294 0.177466
v -0.290217 0.593418 0.177466
v -0.235200 0.593418 0.177466
v 0.249835 0.593418 0.177466
v 0.294501 0.593418 0.221922
v 0.249835 0.535902 0.177466
v -0.235200 0.535902 0.177466
v 0.249835 0.535902 0.221922
v -0.235200 0.593418 -0.196513
v -0.235200 0.535902 -0.196513
v -0.290217 0.593418 -0.196513
v 0.249835 0.268294 0.221922
v 0.294501 0.000686 0.221922
v 0.294501 0.268294 0.221922
v 0.249835 0.593418 0.221922
v -0.235200 0.588765 -0.145045
v -0.235200 0.593418 -0.145045
v -0.235200 0.535902 -0.145045
v -0.290217 0.535902 0.177466
v 0.249835 0.535902 -0.145045
v 0.249835 0.593418 -0.145045
v 0.294501 0.593418 -0.145045
v 0.294501 0.535902 -0.145045
v -0.290217 0.593418 0.221922
v 0.294501 0.593418 -0.196513
v 0.249835 0.268294 0.177466
v 0.249835 0.000686 0.221922
v -0.290217 0.268294 -0.196513
v -0.290217 0.000686 -0.145045
v -0.290217 0.268294 -0.145045
v 0.294501 0.000686 0.177466
v 0.249835 0.000686 0.177466
v -0.290217 0.000686 0.221922
v -0.290217 0.000686 0.177466
v 0.294501 0.000686 -0.196513
v 0.249835 0.000686 -0.145045
v 0.249835 0.000686 -0.196513
v -0.235200 0.000686 -0.196513
v -0.290217 0.000686 -0.196513
v -0.235200 0.268294 -0.196513
v 0.294501 0.268294 0.177466
v 0.294501 0.268294 -0.196513
v 0.249835 0.268294 -0.196513
v 0.249835 0.268294 -0.145045
v -0.235200 0.000686 -0.145045
v -0.235200 0.268294 -0.145045
v 0.294501 0.268294 -0.145045
v -0.290217 0.268294 0.177466
v -0.290217 0.268294 0.221922
v -0.235200 0.000686 0.221922
v 0.294501 0.000686 -0.145045
v 0.294501 0.318248 -0.145045
v -0.235200 0.318248 -0.145045
v -0.290217 0.318248 -0.145045
v -0.235200 0.318248 0.177466
v 0.249835 0.318248 0.177466
v 0.294501 0.318248 0.177466
v -0.290217 0.318248 0.177466
v 0.249835 0.268294 -0.184899
v 0.249835 0.318248 0.213033
v 0.249835 0.268294 0.213033
v -0.235200 0.318248 0.213033
v -0.235200 0.268294 0.213033
v -0.235200 0.268294 -0.184899
v 0.249835 0.318248 -0.184899
v 0.249835 0.318248 -0.145045
v -0.235200 0.318248 -0.184899
v 0.249835 0.588765 0.177466
v 0.249835 0.588765 -0.145045
v -0.235200 0.588765 0.177466
vt 0.4607 0.3461
vt 0.4909 0.3797
vt 0.4607 0.3797
vt 0.3168 0.0000
vt 0.3430 0.0336
vt 0.3168 0.0336
vt 0.2194 0.3461
vt 0.2455 0.3797
vt 0.2194 0.3797
vt 0.3753 0.3461
vt 0.3430 0.3125
vt 0.3753 0.3125
vt 0.7911 0.8437
vt 0.8172 0.6875
vt 0.8172 0.8437
vt 0.5170 0.6875
vt 0.4909 0.6554
vt 0.5170 0.6554
vt 0.5170 0.3722
vt 0.4909 0.3461
vt 0.5170 0.3461
vt 0.7121 0.3153
vt 0.6860 0.0321
vt 0.7121 0.0321
vt 0.6860 0.3461
vt 0.6598 0.3125
vt 0.6860 0.3125
vt 0.0323 0.0000
vt 0.0323 0.0336
vt 0.0000 0.0000
vt 0.0000 0.0336
vt 0.6598 0.1563
vt 0.6860 0.0000
vt 0.6860 0.1563
vt 0.4909 0.3722
vt 0.6598 0.3461
vt 0.2427 0.6922
vt 0.2455 0.8805
vt 0.2427 0.8805
vt 0.9013 0.0321
vt 0.7121 0.0000
vt 0.9013 0.0000
vt 0.9013 0.3153
vt 0.7062 0.3722
vt 0.7062 0.3461
vt 0.7062 0.6875
vt 0.7062 0.6554
vt 0.9013 0.3414
vt 0.0302 0.3461
vt 0.0302 0.3797
vt 0.2455 0.3461
vt 0.2715 0.3797
vt 0.2455 0.3797
vt 0.0000 0.3461
vt 0.0000 0.3797
vt 0.8433 0.8437
vt 0.8172 1.0000
vt 0.8172 0.8437
vt 0.7364 0.6875
vt 0.7364 0.6554
vt 0.7364 0.3722
vt 0.7364 0.3461
vt 0.9315 0.3153
vt 0.9315 0.0321
vt 0.4909 0.5359
vt 0.4607 0.6922
vt 0.4607 0.5359
vt 0.2715 0.3461
vt 0.3184 0.6922
vt 0.3445 0.7183
vt 0.3184 0.7183
vt 0.1474 0.6922
vt 0.1735 0.7243
vt 0.1474 0.7243
vt 0.1735 0.7222
vt 0.1997 0.6922
vt 0.1997 0.7222
vt 0.0586 0.6922
vt 0.0888 0.7243
vt 0.0586 0.7243
vt 0.0323 0.1898
vt 0.0000 0.3461
vt 0.0000 0.1898
vt 0.7649 0.8437
vt 0.7911 0.6875
vt 0.7911 0.8437
vt 0.3430 0.1898
vt 0.3168 0.3461
vt 0.3168 0.1898
vt 1.0000 0.5023
vt 0.9698 0.6586
vt 0.9698 0.5023
vt 0.9637 0.1563
vt 0.9960 0.0000
vt 0.9960 0.1563
vt 1.0000 0.8148
vt 0.9698 0.9711
vt 0.9698 0.8148
vt 0.0302 0.5359
vt 0.0000 0.6922
vt 0.0000 0.5359
vt 0.2715 0.5359
vt 0.2455 0.6922
vt 0.2455 0.5359
vt 0.9315 0.1563
vt 0.9637 0.0000
vt 0.9637 0.1563
vt 0.2455 0.5359
vt 0.2194 0.6922
vt 0.2194 0.5359
vt 0.3430 0.1563
vt 0.3753 0.0000
vt 0.3753 0.1563
vt 0.7649 0.8437
vt 0.7387 1.0000
vt 0.7387 0.8437
vt 0.7649 0.6875
vt 0.7387 0.6875
vt 1.0000 0.3461
vt 0.9698 0.3461
vt 0.7649 1.0000
vt 0.7911 1.0000
vt 0.8433 0.6875
vt 0.8172 0.6875
vt 1.0000 0.6586
vt 0.9698 0.6586
vt 0.9637 0.3125
vt 0.9960 0.3125
vt 0.9315 0.3125
vt 0.9637 0.3125
vt 0.7911 1.0000
vt 0.8172 1.0000
vt 0.1997 0.7213
vt 0.2259 0.6922
vt 0.2259 0.7213
vt 0.9464 0.6554
vt 0.9464 0.6875
vt 0.7572 0.6554
vt 0.0293 0.6922
vt 0.0586 0.8805
vt 0.0293 0.8805
vt 0.2717 0.6922
vt 0.2455 0.7213
vt 0.2455 0.6922
vt 0.0293 0.8805
vt 0.0000 0.6922
vt 0.0293 0.6922
vt 0.1181 0.7243
vt 0.0888 0.6922
vt 0.1181 0.6922
vt 0.8667 0.9707
vt 0.8433 0.6875
vt 0.8667 0.6875
vt 0.7364 0.3722
vt 0.7572 0.3722
vt 0.1181 0.6922
vt 0.1474 0.7243
vt 0.1181 0.7243
vt 0.7387 0.9707
vt 0.7094 0.6875
vt 0.7387 0.6875
vt 0.3862 0.7213
vt 0.3654 0.6922
vt 0.3862 0.6922
vt 0.8875 0.9707
vt 0.8667 0.6875
vt 0.8875 0.6875
vt 0.3654 0.7213
vt 0.3445 0.6922
vt 0.3654 0.6922
vt 0.7094 0.9707
vt 0.6801 0.6875
vt 0.7094 0.6875
vt 0.2717 0.6922
vt 0.2950 0.7213
vt 0.2717 0.7213
vt 0.2950 0.6922
vt 0.3184 0.7213
vt 0.2950 0.7213
vt 0.9464 0.3722
vt 0.9698 0.6554
vt 0.6801 0.9707
vt 0.4909 0.6875
vt 0.6801 0.6875
vt 0.8902 0.9707
vt 0.8875 0.6875
vt 0.8902 0.6875
vt 0.8930 0.9707
vt 0.8902 0.6875
vt 0.8930 0.6875
vt 0.2427 0.8805
vt 0.2400 0.6922
vt 0.2427 0.6922
vt 0.4909 0.3461
vt 0.3430 0.0000
vt 0.2455 0.3461
vt 0.3430 0.3461
vt 0.7911 0.6875
vt 0.4909 0.6875
vt 0.6860 0.3153
vt 0.6598 0.0000
vt 0.2455 0.6922
vt 0.7121 0.3414
vt 0.8433 1.0000
vt 0.4909 0.6922
vt 0.3445 0.6922
vt 0.1735 0.6922
vt 0.1735 0.6922
vt 0.0888 0.6922
vt 0.0323 0.3461
vt 0.7649 0.6875
vt 0.3430 0.3461
vt 1.0000 0.6586
vt 0.9637 0.0000
vt 1.0000 0.9711
vt 0.0302 0.6922
vt 0.2715 0.6922
vt 0.9315 0.0000
vt 0.2455 0.6922
vt 0.3430 0.0000
vt 0.7649 1.0000
vt 0.1997 0.6922
vt 0.7572 0.3461
vt 0.9464 0.3461
vt 0.7572 0.6875
vt 0.0586 0.6922
vt 0.2717 0.7213
vt 0.0000 0.8805
vt 0.0888 0.7243
vt 0.8433 0.9707
vt 0.7364 0.6554
vt 0.1474 0.6922
vt 0.7094 0.9707
vt 0.3654 0.7213
vt 0.8667 0.9707
vt 0.3445 0.7213
vt 0.6801 0.9707
vt 0.2950 0.6922
vt 0.3184 0.6922
vt 0.9698 0.3722
vt 0.4909 0.9707
vt 0.8875 0.9707
vt 0.8902 0.9707
vt 0.2400 0.8805
vn -1.0000 0.0000 0.0000
vn 0.0000 0.0000 -1.0000
vn 1.0000 0.0000 0.0000
vn 0.0000 0.0000 1.0000
vn 0.0000 1.0000 0.0000
vn 0.0000 -1.0000 0.0000
s 1
f 1/1/1 2/2/1 3/3/1
f 4/4/2 5/5/2 6/6/2
f 7/7/3 8/8/3 9/9/3
f 10/10/4 11/11/4 12/12/4
f 13/13/3 14/14/3 15/15/3
f 16/16/5 10/17/5 17/18/5
f 18/19/5 19/20/5 7/21/5
f 20/22/6 12/23/6 21/24/6
f 19/25/4 22/26/4 8/27/4
f 23/28/2 6/6/2 24/29/2
f 25/30/2 24/29/2 2/31/2
f 26/32/4 27/33/4 28/34/4
f 17/18/5 29/35/5 18/19/5
f 29/36/4 12/12/4 22/26/4
f 17/37/3 30/38/3 31/39/3
f 32/40/6 33/41/6 3/42/6
f 34/43/6 21/24/6 32/40/6
f 35/44/5 7/21/5 36/45/5
f 1/46/5 17/18/5 31/47/5
f 37/48/6 20/22/6 34/43/6
f 36/49/3 9/9/3 37/50/3
f 38/51/1 33/52/1 11/53/1
f 39/54/3 37/50/3 5/55/3
f 40/56/1 41/57/1 26/58/1
f 25/59/5 31/47/5 23/60/5
f 4/61/5 36/45/5 39/62/5
f 6/63/6 32/40/6 24/64/6
f 42/65/1 43/66/1 44/67/1
f 23/60/5 35/44/5 4/61/5
f 16/68/1 3/3/1 33/52/1
f 45/69/6 41/70/6 46/71/6
f 14/72/6 47/73/6 48/74/6
f 49/75/6 50/76/6 51/77/6
f 52/78/6 43/79/6 53/80/6
f 54/81/2 53/82/2 42/83/2
f 55/84/2 46/85/2 40/86/2
f 56/87/2 51/88/2 57/89/2
f 57/90/1 50/91/1 58/92/1
f 44/93/4 59/94/4 60/95/4
f 60/96/3 52/97/3 54/98/3
f 61/99/3 49/100/3 56/101/3
f 62/102/1 47/103/1 63/104/1
f 15/105/2 48/106/2 62/107/2
f 28/108/3 45/109/3 55/110/3
f 63/111/4 64/112/4 13/113/4
f 58/114/4 65/115/4 61/116/4
f 34/117/4 61/116/4 37/118/4
f 37/50/3 56/101/3 5/55/3
f 6/119/1 58/92/1 34/120/1
f 5/5/2 57/89/2 6/6/2
f 8/8/3 55/110/3 9/9/3
f 9/121/2 40/86/2 20/122/2
f 20/123/1 26/58/1 22/124/1
f 22/26/4 28/34/4 8/27/4
f 32/125/3 54/98/3 24/126/3
f 3/127/4 60/95/4 32/128/4
f 24/29/2 42/83/2 2/31/2
f 2/2/1 44/67/1 3/3/1
f 11/11/4 13/113/4 12/12/4
f 21/129/2 62/107/2 33/130/2
f 33/52/1 63/104/1 11/53/1
f 12/131/3 15/15/3 21/132/3
f 58/133/2 66/134/2 61/135/2
f 67/136/5 68/137/5 69/138/5
f 62/139/1 68/140/1 44/141/1
f 55/142/4 70/143/4 40/144/4
f 61/145/3 71/146/3 55/147/3
f 15/148/4 72/149/4 62/150/4
f 60/151/6 73/152/6 58/153/6
f 69/138/5 74/154/5 70/155/5
f 44/156/2 67/157/2 60/158/2
f 75/159/4 76/160/4 77/161/4
f 15/162/1 76/163/1 69/164/1
f 40/165/6 77/166/6 15/167/6
f 70/168/3 75/169/3 40/170/3
f 78/171/2 79/172/2 73/173/2
f 58/174/3 79/175/3 80/176/3
f 67/177/1 78/178/1 60/179/1
f 80/180/5 81/181/5 67/136/5
f 30/182/5 82/183/5 83/184/5
f 18/185/2 84/186/2 17/187/2
f 31/188/4 83/189/4 35/190/4
f 35/191/1 82/192/1 18/193/1
f 1/1/1 25/194/1 2/2/1
f 4/4/2 39/195/2 5/5/2
f 7/7/3 19/196/3 8/8/3
f 10/10/4 38/197/4 11/11/4
f 13/13/3 64/198/3 14/14/3
f 16/16/5 38/199/5 10/17/5
f 18/19/5 29/35/5 19/20/5
f 20/22/6 22/200/6 12/23/6
f 19/25/4 29/36/4 22/26/4
f 23/28/2 4/4/2 6/6/2
f 25/30/2 23/28/2 24/29/2
f 26/32/4 41/201/4 27/33/4
f 17/18/5 10/17/5 29/35/5
f 29/36/4 10/10/4 12/12/4
f 17/37/3 84/202/3 30/38/3
f 32/40/6 21/24/6 33/41/6
f 34/43/6 20/22/6 21/24/6
f 35/44/5 18/19/5 7/21/5
f 1/46/5 16/16/5 17/18/5
f 37/48/6 9/203/6 20/22/6
f 36/49/3 7/7/3 9/9/3
f 38/51/1 16/68/1 33/52/1
f 39/54/3 36/49/3 37/50/3
f 40/56/1 46/204/1 41/57/1
f 25/59/5 1/46/5 31/47/5
f 4/61/5 35/44/5 36/45/5
f 6/63/6 34/43/6 32/40/6
f 42/65/1 53/205/1 43/66/1
f 23/60/5 31/47/5 35/44/5
f 16/68/1 1/1/1 3/3/1
f 45/69/6 27/206/6 41/70/6
f 14/72/6 64/207/6 47/73/6
f 49/75/6 65/208/6 50/76/6
f 52/78/6 59/209/6 43/79/6
f 54/81/2 52/210/2 53/82/2
f 55/84/2 45/211/2 46/85/2
f 56/87/2 49/212/2 51/88/2
f 57/90/1 51/213/1 50/91/1
f 44/93/4 43/214/4 59/94/4
f 60/96/3 59/215/3 52/97/3
f 61/99/3 65/216/3 49/100/3
f 62/102/1 48/217/1 47/103/1
f 15/105/2 14/218/2 48/106/2
f 28/108/3 27/219/3 45/109/3
f 63/111/4 47/220/4 64/112/4
f 58/114/4 50/221/4 65/115/4
f 34/117/4 58/114/4 61/116/4
f 37/50/3 61/99/3 56/101/3
f 6/119/1 57/90/1 58/92/1
f 5/5/2 56/87/2 57/89/2
f 8/8/3 28/108/3 55/110/3
f 9/121/2 55/84/2 40/86/2
f 20/123/1 40/56/1 26/58/1
f 22/26/4 26/32/4 28/34/4
f 32/125/3 60/96/3 54/98/3
f 3/127/4 44/93/4 60/95/4
f 24/29/2 54/81/2 42/83/2
f 2/2/1 42/65/1 44/67/1
f 11/11/4 63/111/4 13/113/4
f 21/129/2 15/105/2 62/107/2
f 33/52/1 62/102/1 63/104/1
f 12/131/3 13/13/3 15/15/3
f 58/133/2 80/222/2 66/134/2
f 70/155/5 71/223/5 66/224/5
f 80/180/5 67/136/5 69/138/5
f 70/155/5 66/224/5 80/180/5
f 68/137/5 72/225/5 69/138/5
f 69/138/5 70/155/5 80/180/5
f 62/139/1 72/226/1 68/140/1
f 55/142/4 71/227/4 70/143/4
f 61/145/3 66/228/3 71/146/3
f 15/148/4 69/229/4 72/149/4
f 60/151/6 78/230/6 73/152/6
f 69/138/5 76/231/5 74/154/5
f 44/156/2 68/232/2 67/157/2
f 75/159/4 74/233/4 76/160/4
f 15/162/1 77/234/1 76/163/1
f 40/165/6 75/235/6 77/166/6
f 70/168/3 74/236/3 75/169/3
f 78/171/2 81/237/2 79/172/2
f 58/174/3 73/238/3 79/175/3
f 67/177/1 81/239/1 78/178/1
f 80/180/5 79/240/5 81/181/5
f 30/182/5 84/241/5 82/183/5
f 18/185/2 82/242/2 84/186/2
f 31/188/4 30/243/4 83/189/4
f 35/191/1 83/244/1 82/192/1
