# Blender v2.78 (sub 0) OBJ File: ''
# www.blender.org
o legs_Untitled.111
v -0.573901 -0.003267 0.309444
v -0.573901 -0.003267 0.334449
v -0.548896 -0.003267 0.309444
v -0.548896 -0.003267 0.334449
v -0.573901 0.061744 0.309444
v -0.573901 0.061744 0.334449
v -0.548896 0.061744 0.309444
v -0.548896 0.061744 0.334449
v -0.573901 -0.003267 -0.314629
v -0.573901 -0.003267 -0.289625
v -0.548896 -0.003267 -0.314629
v -0.548896 -0.003267 -0.289625
v -0.573901 0.061744 -0.314629
v -0.573901 0.061744 -0.289625
v -0.548896 0.061744 -0.314629
v -0.548896 0.061744 -0.289625
v 0.543918 -0.003267 -0.314629
v 0.543918 -0.003267 -0.289625
v 0.568922 -0.003267 -0.314629
v 0.568922 -0.003267 -0.289625
v 0.543918 0.061744 -0.314629
v 0.543918 0.061744 -0.289625
v 0.568922 0.061744 -0.314629
v 0.568922 0.061744 -0.289625
v 0.543917 -0.003267 0.309445
v 0.543917 -0.003267 0.334449
v 0.568922 -0.003267 0.309445
v 0.568922 -0.003267 0.334449
v 0.543917 0.061744 0.309445
v 0.543917 0.061744 0.334449
v 0.568922 0.061744 0.309445
v 0.568922 0.061744 0.334449
vt -0.2315 0.5697
vt -0.2065 0.5697
vt -0.2065 0.5947
vt -0.2315 0.5947
vt 0.4303 -0.5203
vt 0.4053 -0.5203
vt 0.4053 -0.5853
vt 0.4303 -0.5853
vt 1.2315 -0.5203
vt 1.2065 -0.5203
vt 1.2065 -0.5853
vt 1.2315 -0.5853
vt 0.5947 -0.5203
vt 0.5697 -0.5203
vt 0.5697 -0.5853
vt 0.5947 -0.5853
vt -0.2065 -0.5203
vt -0.2315 -0.5203
vt -0.2315 -0.5853
vt -0.2065 -0.5853
vt -0.2315 1.1937
vt -0.2065 1.1937
vt -0.2065 1.2187
vt -0.2315 1.2187
vt -0.1937 -0.5203
vt -0.2187 -0.5203
vt -0.2187 -0.5853
vt -0.1937 -0.5853
vt 1.2315 -0.5203
vt 1.2065 -0.5203
vt 1.2065 -0.5853
vt 1.2315 -0.5853
vt 1.2187 -0.5203
vt 1.1937 -0.5203
vt 1.1937 -0.5853
vt 1.2187 -0.5853
vt -0.2065 -0.5203
vt -0.2315 -0.5203
vt -0.2315 -0.5853
vt -0.2065 -0.5853
vt -1.3492 1.1937
vt -1.3242 1.1937
vt -1.3242 1.2187
vt -1.3492 1.2187
vt -0.1937 -0.5203
vt -0.2187 -0.5203
vt -0.2187 -0.5853
vt -0.1937 -0.5853
vt 2.3492 -0.5203
vt 2.3242 -0.5203
vt 2.3242 -0.5853
vt 2.3492 -0.5853
vt 1.2187 -0.5203
vt 1.1937 -0.5203
vt 1.1937 -0.5853
vt 1.2187 -0.5853
vt -1.3242 -0.5203
vt -1.3492 -0.5203
vt -1.3492 -0.5853
vt -1.3242 -0.5853
vt -1.3492 0.5697
vt -1.3242 0.5697
vt -1.3242 0.5947
vt -1.3492 0.5947
vt 0.4303 -0.5203
vt 0.4053 -0.5203
vt 0.4053 -0.5853
vt 0.4303 -0.5853
vt 2.3492 -0.5203
vt 2.3242 -0.5203
vt 2.3242 -0.5853
vt 2.3492 -0.5853
vt 0.5947 -0.5203
vt 0.5697 -0.5203
vt 0.5697 -0.5853
vt 0.5947 -0.5853
vt -1.3242 -0.5203
vt -1.3492 -0.5203
vt -1.3492 -0.5853
vt -1.3242 -0.5853
vn 0.0000 -1.0000 0.0000
vn -1.0000 0.0000 0.0000
vn 0.0000 0.0000 1.0000
vn 1.0000 0.0000 0.0000
vn 0.0000 0.0000 -1.0000
s 1
f 4/1/1 2/2/1 1/3/1
f 1/3/1 3/4/1 4/1/1
f 6/5/2 5/6/2 1/7/2
f 1/7/2 2/8/2 6/5/2
f 8/9/3 6/10/3 2/11/3
f 2/11/3 4/12/3 8/9/3
f 7/13/4 8/14/4 4/15/4
f 4/15/4 3/16/4 7/13/4
f 5/17/5 7/18/5 3/19/5
f 3/19/5 1/20/5 5/17/5
f 12/21/1 10/22/1 9/23/1
f 9/23/1 11/24/1 12/21/1
f 14/25/2 13/26/2 9/27/2
f 9/27/2 10/28/2 14/25/2
f 16/29/3 14/30/3 10/31/3
f 10/31/3 12/32/3 16/29/3
f 15/33/4 16/34/4 12/35/4
f 12/35/4 11/36/4 15/33/4
f 13/37/5 15/38/5 11/39/5
f 11/39/5 9/40/5 13/37/5
f 20/41/1 18/42/1 17/43/1
f 17/43/1 19/44/1 20/41/1
f 22/45/2 21/46/2 17/47/2
f 17/47/2 18/48/2 22/45/2
f 24/49/3 22/50/3 18/51/3
f 18/51/3 20/52/3 24/49/3
f 23/53/4 24/54/4 20/55/4
f 20/55/4 19/56/4 23/53/4
f 21/57/5 23/58/5 19/59/5
f 19/59/5 17/60/5 21/57/5
f 28/61/1 26/62/1 25/63/1
f 25/63/1 27/64/1 28/61/1
f 30/65/2 29/66/2 25/67/2
f 25/67/2 26/68/2 30/65/2
f 32/69/3 30/70/3 26/71/3
f 26/71/3 28/72/3 32/69/3
f 31/73/4 32/74/4 28/75/4
f 28/75/4 27/76/4 31/73/4
f 29/77/5 31/78/5 27/79/5
f 27/79/5 25/80/5 29/77/5
o base_Untitled.110
v 0.589639 0.294409 0.311718
v 0.589639 0.294022 -0.319094
v 0.589639 0.082847 0.330742
v 0.589639 0.082847 -0.322369
v 0.588143 0.329241 0.302233
v 0.588143 0.314618 0.335211
v 0.588143 0.291386 0.349469
v 0.588143 0.082845 0.349469
v 0.588143 0.069725 0.343984
v 0.588143 0.064267 0.330742
v 0.588143 0.064267 -0.322369
v 0.588143 0.069725 -0.335611
v 0.588143 0.082845 -0.341096
v 0.588143 0.293868 -0.337821
v 0.588143 0.319766 -0.318594
v 0.588143 0.330756 -0.280126
v 0.584530 0.336253 0.302233
v 0.584531 0.319565 0.340696
v 0.584531 0.291481 0.357226
v 0.584530 0.082846 0.357226
v 0.584530 0.064267 0.349469
v 0.584530 0.056524 0.330742
v 0.584530 0.056524 -0.322369
v 0.584530 0.064267 -0.341096
v 0.584531 0.082846 -0.348853
v 0.584531 0.293966 -0.345578
v 0.584531 0.324712 -0.324079
v 0.584531 0.337776 -0.280126
v 0.589639 0.082870 0.109465
v 0.589639 0.082870 -0.099139
v 0.589639 0.295875 -0.099139
v 0.589639 0.295934 0.109465
v 0.588143 0.064269 0.109465
v 0.588143 0.064269 -0.099139
v 0.588143 0.332081 -0.099139
v 0.588143 0.331627 0.109465
v 0.584530 0.056524 0.109465
v 0.584531 0.056524 -0.099139
v 0.584531 0.339193 -0.099139
v 0.584531 0.338739 0.109465
v 0.218851 0.355904 0.302233
v 0.218851 0.336512 0.340696
v 0.218851 0.304377 0.357226
v 0.218851 0.082646 0.357226
v 0.218851 0.056524 0.330742
v 0.218850 0.056524 0.109465
v 0.218851 0.359343 -0.099139
v -0.589858 0.079286 0.109464
v -0.589858 0.079286 -0.099139
v -0.589858 0.289255 -0.099139
v -0.589858 0.289321 0.109464
v -0.589858 0.287631 0.311718
v -0.588362 0.326985 0.302232
v -0.588362 0.310269 0.335210
v -0.588362 0.284300 0.349469
v -0.588362 0.079274 0.349469
v -0.589859 0.079266 0.330741
v -0.588362 0.067856 0.343984
v -0.588362 0.063152 0.330741
v -0.588362 0.063154 0.109464
v -0.588362 0.063154 -0.099139
v -0.589858 0.079266 -0.322369
v -0.588362 0.063152 -0.322369
v -0.588362 0.067856 -0.335611
v -0.588362 0.079274 -0.341096
v -0.588362 0.287040 -0.337822
v -0.589858 0.287202 -0.319094
v -0.588362 0.316120 -0.318594
v -0.588362 0.328733 -0.280126
v -0.588362 0.330264 -0.099139
v -0.588362 0.329739 0.109464
v -0.584750 0.335065 0.302232
v -0.584750 0.315880 0.340696
v -0.584750 0.284428 0.357226
v -0.584750 0.079297 0.357226
v -0.584750 0.063159 0.349469
v -0.584750 0.056524 0.330741
v -0.584750 0.056524 0.109464
v -0.584750 0.056524 -0.099139
v -0.584750 0.056524 -0.322369
v -0.584750 0.063159 -0.341096
v -0.584750 0.079297 -0.348853
v -0.584749 0.287169 -0.345579
v -0.584749 0.321756 -0.324079
v -0.584749 0.336835 -0.280126
v -0.584749 0.338484 -0.099139
v -0.584750 0.337955 0.109464
v 0.218851 0.064170 0.349469
v 0.218851 0.056524 -0.322369
v 0.218851 0.064170 -0.341096
v 0.218851 0.082646 -0.348853
v 0.218851 0.307195 -0.345578
v 0.218851 0.342469 -0.324079
v 0.218851 0.357684 -0.280126
v 0.218851 0.056524 -0.099139
v 0.218851 0.358811 0.109465
v -0.219070 0.355459 0.302232
v -0.219070 0.335132 0.340696
v -0.219070 0.301735 0.357226
v -0.219070 0.081316 0.357226
v -0.219070 0.056524 0.330742
v -0.219070 0.056524 0.109465
v -0.219070 0.359078 -0.099139
v -0.219070 0.063755 0.349469
v -0.219070 0.056524 -0.322369
v -0.219070 0.063755 -0.341096
v -0.219070 0.081316 -0.348853
v -0.219070 0.304650 -0.345579
v -0.219070 0.341362 -0.324079
v -0.219070 0.357332 -0.280126
v -0.219070 0.056524 -0.099139
v -0.219070 0.358518 0.109465
v -0.000110 0.358759 0.302232
v -0.000110 0.338899 0.340696
v -0.000110 0.306133 0.357226
v -0.000110 0.081981 0.357226
v -0.000110 0.056524 0.330742
v -0.000110 0.056524 0.109465
v -0.000109 0.362287 -0.099139
v -0.000110 0.063962 0.349469
v -0.000110 0.056524 -0.322369
v -0.000110 0.063962 -0.341096
v -0.000110 0.081981 -0.348853
v -0.000109 0.309000 -0.345579
v -0.000109 0.344992 -0.324079
v -0.000109 0.360585 -0.280126
v -0.000110 0.056524 -0.099139
v -0.000109 0.361742 0.109465
vt 0.7946 -0.2861
vt 0.7946 -0.4991
vt 1.0032 -0.4991
vt 1.0032 -0.2862
vt 0.5924 -0.2876
vt 0.6019 -0.2528
vt 0.5689 -0.2674
vt 0.5547 -0.2907
vt 0.5547 -0.4992
vt 0.5734 -0.4992
vt 0.5602 -0.5123
vt 0.5734 -0.5177
vt 0.7946 -0.5177
vt 1.0032 -0.5177
vt 1.2264 -0.4992
vt 1.2264 -0.5177
vt 1.2396 -0.5123
vt 1.2451 -0.4992
vt 1.2418 -0.2882
vt 1.2231 -0.2880
vt 1.2226 -0.2623
vt 1.1842 -0.2513
vt 1.0032 -0.2500
vt 0.7946 -0.2504
vt 0.6019 -0.2458
vt 0.5634 -0.2625
vt 0.5469 -0.2906
vt 0.5469 -0.4992
vt 0.5547 -0.5177
vt 0.5734 -0.5255
vt 0.7946 -0.5255
vt 1.0032 -0.5255
vt 1.2264 -0.5255
vt 1.2451 -0.5177
vt 1.2529 -0.4992
vt 1.2496 -0.2881
vt 1.2281 -0.2573
vt 1.1842 -0.2443
vt 1.0032 -0.2429
vt 0.7946 -0.2433
vt 2.3648 0.5634
vt 2.3648 0.6019
vt 1.9991 0.6019
vt 1.9991 0.5634
vt 2.3648 -0.2906
vt 2.3648 -0.2625
vt 1.9991 -0.2455
vt 1.9991 -0.2777
vt 2.3648 -0.4992
vt 1.9991 -0.4994
vt 2.3648 -0.5177
vt 1.9991 -0.5178
vt -1.3648 0.5734
vt -1.3648 0.5547
vt -0.9991 0.5547
vt -0.9991 0.5734
vt -1.3648 1.2451
vt -1.3648 1.2264
vt -0.9991 1.2264
vt -0.9991 1.2451
vt -1.3648 -0.4992
vt -1.3648 -0.5177
vt -0.9991 -0.5178
vt -0.9991 -0.4994
vt -1.3648 -0.2881
vt -0.9991 -0.2749
vt -1.3648 -0.2573
vt -0.9991 -0.2396
vt 2.3648 1.1842
vt 2.3648 1.2281
vt 1.9991 1.2281
vt 1.9991 1.1842
vt -0.9991 0.7946
vt -1.3648 0.7946
vt 1.9991 1.0032
vt 2.3648 1.0032
vt -0.9991 1.0032
vt -1.3648 1.0032
vt 1.9991 0.7946
vt 2.3648 0.7946
vt 0.2054 -0.2927
vt -0.0032 -0.2928
vt -0.0032 -0.5027
vt 0.2054 -0.5027
vt 0.4076 -0.2944
vt 0.4311 -0.2718
vt 0.3981 -0.2551
vt 0.4453 -0.2977
vt 0.4266 -0.5027
vt 0.4453 -0.5027
vt 0.4398 -0.5141
vt 0.4266 -0.5189
vt -0.0032 -0.5188
vt 0.2054 -0.5188
vt -0.2264 -0.5027
vt -0.2396 -0.5141
vt -0.2264 -0.5189
vt -0.2451 -0.5027
vt -0.2231 -0.2948
vt -0.2418 -0.2950
vt -0.2226 -0.2659
vt -0.1842 -0.2533
vt 0.2054 -0.2523
vt -0.0032 -0.2518
vt 0.4366 -0.2662
vt 0.3981 -0.2470
vt 0.4531 -0.2976
vt 0.4531 -0.5027
vt 0.4453 -0.5188
vt 0.4266 -0.5255
vt -0.0032 -0.5255
vt 0.2054 -0.5255
vt -0.2451 -0.5188
vt -0.2264 -0.5255
vt -0.2529 -0.5027
vt -0.2496 -0.2949
vt -0.2281 -0.2603
vt -0.1842 -0.2452
vt 0.2054 -0.2441
vt -0.0032 -0.2436
vt 1.1957 0.5634
vt 1.5613 0.5634
vt 1.5613 0.6019
vt 1.1957 0.6019
vt 1.1957 -0.2976
vt 1.5613 -0.2803
vt 1.5613 -0.2469
vt 1.1957 -0.2662
vt 1.1957 -0.5027
vt 1.5613 -0.5007
vt 1.1957 -0.5188
vt 1.5613 -0.5182
vt -0.1957 0.5734
vt -0.5613 0.5734
vt -0.5613 0.5547
vt -0.1957 0.5547
vt -0.1957 1.2451
vt -0.5613 1.2451
vt -0.5613 1.2264
vt -0.1957 1.2264
vt -0.1957 -0.5027
vt -0.5613 -0.5007
vt -0.5613 -0.5182
vt -0.1957 -0.5188
vt -0.1957 -0.2949
vt -0.5613 -0.2774
vt -0.1957 -0.2603
vt -0.5613 -0.2407
vt 1.1957 1.1842
vt 1.5613 1.1842
vt 1.5613 1.2281
vt 1.1957 1.2281
vt -0.5613 0.7946
vt -0.1957 0.7946
vt 1.5613 1.0032
vt 1.1957 1.0032
vt -0.1957 1.0032
vt -0.5613 1.0032
vt 1.1957 0.7946
vt 1.5613 0.7946
vt 1.7802 0.6019
vt 1.7802 0.5634
vt 1.7802 -0.2432
vt 1.7802 -0.2759
vt 1.7802 -0.5000
vt 1.7802 -0.5180
vt -0.7802 0.5547
vt -0.7802 0.5734
vt 1.7802 1.0032
vt 1.7802 0.7946
vt -0.7802 0.7946
vt -0.7802 1.2451
vt -0.7802 1.2264
vt -0.7802 -0.5000
vt -0.7802 -0.5180
vt -0.7802 -0.2730
vt -0.7802 -0.2371
vt 1.7802 1.1842
vt 1.7802 1.2281
vt -0.7802 1.0032
vn 0.9998 0.0210 0.0001
vn 0.9992 -0.0401 -0.0000
vn 0.9998 0.0207 -0.0001
vn 0.9996 0.0209 0.0186
vn 0.9574 0.2808 0.0669
vn 0.9577 0.2195 0.1863
vn 0.9603 0.0884 0.2647
vn 0.9600 -0.0594 0.2735
vn 0.9989 -0.0324 0.0351
vn 0.9552 -0.2098 0.2085
vn 0.9596 -0.2750 0.0602
vn 0.9668 -0.2555 -0.0000
vn 0.9988 -0.0340 -0.0342
vn 0.9595 -0.2751 -0.0604
vn 0.9552 -0.2100 -0.2085
vn 0.9595 -0.0591 -0.2755
vn 0.9535 0.1089 -0.2811
vn 0.9987 0.0277 -0.0421
vn 0.9530 0.2582 -0.1583
vn 0.9611 0.2732 -0.0410
vn 0.9673 0.2535 -0.0007
vn 0.9672 0.2538 0.0019
vn 0.5134 0.8399 0.1758
vn 0.5024 0.6413 0.5799
vn 0.5024 0.2168 0.8370
vn 0.5067 -0.1648 0.8462
vn 0.4852 -0.6193 0.6173
vn 0.5067 -0.8465 0.1634
vn 0.5373 -0.8434 -0.0000
vn 0.5067 -0.8465 -0.1635
vn 0.4852 -0.6193 -0.6173
vn 0.5059 -0.1584 -0.8479
vn 0.4962 0.2541 -0.8302
vn 0.4958 0.6984 -0.5161
vn 0.5211 0.8444 -0.1241
vn 0.5455 0.8381 -0.0023
vn 0.5455 0.8381 0.0063
vn 0.0308 0.9710 0.2370
vn 0.0196 0.7119 0.7020
vn 0.0055 0.2370 0.9715
vn 0.0003 -0.1973 0.9803
vn 0.0006 -0.7106 0.7036
vn 0.0002 -0.9813 0.1925
vn 0.0001 -0.9813 -0.1926
vn 0.0002 -0.7106 -0.7036
vn 0.0002 -0.1902 -0.9817
vn 0.0079 0.2804 -0.9599
vn 0.0244 0.7803 -0.6250
vn 0.0329 0.9849 -0.1702
vn -0.0000 -1.0000 0.0000
vn 0.0341 0.9994 -0.0033
vn 0.0339 0.9994 0.0086
vn -0.9998 0.0186 0.0001
vn -0.9998 0.0183 -0.0001
vn -0.9989 -0.0462 0.0000
vn -0.9997 0.0184 0.0187
vn -0.9624 0.1935 0.1904
vn -0.9652 0.2519 0.0698
vn -0.9619 0.0777 0.2623
vn -0.9987 -0.0382 0.0346
vn -0.9586 -0.0697 0.2760
vn -0.9484 -0.2430 0.2034
vn -0.9489 -0.3104 0.0580
vn -0.9566 -0.2914 0.0000
vn -0.9986 -0.0398 -0.0336
vn -0.9485 -0.2429 -0.2034
vn -0.9489 -0.3103 -0.0579
vn -0.9581 -0.0693 -0.2780
vn -0.9988 0.0245 -0.0420
vn -0.9555 0.0958 -0.2789
vn -0.9598 0.2282 -0.1633
vn -0.9688 0.2442 -0.0426
vn -0.9745 0.2244 0.0020
vn -0.9746 0.2240 -0.0007
vn -0.5124 0.6097 0.6048
vn -0.5314 0.8242 0.1958
vn -0.5064 0.1972 0.8395
vn -0.5021 -0.1869 0.8444
vn -0.4737 -0.6517 0.5923
vn -0.4855 -0.8622 0.1447
vn -0.5106 -0.8598 -0.0000
vn -0.4744 -0.6515 -0.5921
vn -0.4858 -0.8621 -0.1443
vn -0.5017 -0.1800 -0.8461
vn -0.5013 0.2315 -0.8337
vn -0.5080 0.6698 -0.5416
vn -0.5411 0.8294 -0.1389
vn -0.5689 0.8224 0.0072
vn -0.5690 0.8223 -0.0026
vn -0.0242 0.6996 0.7141
vn -0.0340 0.9685 0.2468
vn -0.0078 0.2296 0.9732
vn 0.0003 -0.2064 0.9785
vn 0.0003 -0.7237 0.6901
vn -0.0000 -0.9831 0.1832
vn 0.0016 -0.7237 -0.6901
vn 0.0006 -0.9831 -0.1831
vn 0.0007 -0.1991 -0.9800
vn -0.0096 0.2716 -0.9624
vn -0.0272 0.7699 -0.6376
vn -0.0348 0.9835 -0.1776
vn -0.0354 0.9994 -0.0035
vn -0.0354 0.9993 0.0092
vn -0.0014 0.9701 0.2428
vn -0.0021 0.7051 0.7091
vn -0.0011 0.2333 0.9724
vn 0.0004 -0.2017 0.9794
vn 0.0007 -0.7171 0.6970
vn 0.0002 -0.9822 0.1878
vn -0.0006 1.0000 -0.0034
vn -0.0007 1.0000 0.0090
vn 0.0007 -0.7171 -0.6970
vn 0.0002 -0.9822 -0.1881
vn 0.0004 -0.1949 -0.9808
vn -0.0012 0.2754 -0.9613
vn -0.0020 0.7746 -0.6325
vn -0.0011 0.9847 -0.1742
s 1
f 64/81/6 61/82/7 62/83/7
f 62/83/7 63/84/8 64/81/6
f 33/85/9 37/86/10 38/87/11
f 33/85/9 38/87/11 39/88/12
f 33/85/9 39/88/12 40/89/13
f 40/89/13 35/90/14 33/85/9
f 35/90/14 40/89/13 41/91/15
f 35/90/14 41/91/15 42/92/16
f 61/82/7 65/93/17 66/94/17
f 66/94/17 62/83/7 61/82/7
f 36/95/18 43/96/19 44/97/20
f 36/95/18 44/97/20 45/98/21
f 36/95/18 45/98/21 46/99/22
f 46/99/22 34/100/23 36/95/18
f 34/100/23 46/99/22 47/101/24
f 34/100/23 47/101/24 48/102/25
f 64/81/6 63/84/8 67/103/26
f 67/103/26 68/104/27 64/81/6
f 37/86/10 49/105/28 50/106/29
f 50/106/29 38/87/11 37/86/10
f 38/87/11 50/106/29 51/107/30
f 51/107/30 39/88/12 38/87/11
f 39/88/12 51/107/30 52/108/31
f 52/108/31 40/89/13 39/88/12
f 40/89/13 52/108/31 53/109/32
f 53/109/32 41/91/15 40/89/13
f 41/91/15 53/109/32 54/110/33
f 54/110/33 42/92/16 41/91/15
f 65/93/17 69/111/34 70/112/34
f 70/112/34 66/94/17 65/93/17
f 43/96/19 55/113/35 56/114/36
f 56/114/36 44/97/20 43/96/19
f 44/97/20 56/114/36 57/115/37
f 57/115/37 45/98/21 44/97/20
f 45/98/21 57/115/37 58/116/38
f 58/116/38 46/99/22 45/98/21
f 46/99/22 58/116/38 59/117/39
f 59/117/39 47/101/24 46/99/22
f 47/101/24 59/117/39 60/118/40
f 60/118/40 48/102/25 47/101/24
f 67/103/26 71/119/41 72/120/42
f 72/120/42 68/104/27 67/103/26
f 50/121/29 49/122/28 73/123/43
f 73/123/43 74/124/44 50/121/29
f 51/125/30 50/126/29 74/127/44
f 74/127/44 75/128/45 51/125/30
f 52/129/31 51/125/30 75/128/45
f 75/128/45 76/130/46 52/129/31
f 53/131/32 52/129/31 76/130/46
f 76/130/46 120/132/47 53/131/32
f 54/133/33 53/134/32 120/135/47
f 120/135/47 77/136/48 54/133/33
f 56/137/36 55/138/35 121/139/49
f 121/139/49 122/140/50 56/137/36
f 57/141/37 56/142/36 122/143/50
f 122/143/50 123/144/51 57/141/37
f 58/145/38 57/141/37 123/144/51
f 123/144/51 124/146/52 58/145/38
f 59/147/39 58/145/38 124/146/52
f 124/146/52 125/148/53 59/147/39
f 60/149/40 59/150/39 125/151/53
f 125/151/53 126/152/54 60/149/40
f 63/84/8 62/83/7 36/95/18
f 36/95/18 34/100/23 63/84/8
f 61/82/7 64/81/6 33/85/9
f 33/85/9 35/90/14 61/82/7
f 62/83/7 66/94/17 43/96/19
f 43/96/19 36/95/18 62/83/7
f 65/93/17 61/82/7 35/90/14
f 35/90/14 42/92/16 65/93/17
f 64/81/6 68/104/27 37/86/10
f 37/86/10 33/85/9 64/81/6
f 48/102/25 67/103/26 63/84/8
f 63/84/8 34/100/23 48/102/25
f 66/94/17 70/112/34 55/113/35
f 55/113/35 43/96/19 66/94/17
f 69/111/34 65/93/17 42/92/16
f 42/92/16 54/110/33 69/111/34
f 68/104/27 72/120/42 49/105/28
f 49/105/28 37/86/10 68/104/27
f 71/119/41 67/103/26 48/102/25
f 48/102/25 60/118/40 71/119/41
f 78/153/55 69/154/34 54/133/33
f 54/133/33 77/136/48 78/153/55
f 79/155/56 71/156/41 60/149/40
f 60/149/40 126/152/54 79/155/56
f 78/153/55 127/157/55 70/158/34
f 70/158/34 69/154/34 78/153/55
f 79/155/56 128/159/57 72/160/42
f 72/160/42 71/156/41 79/155/56
f 127/157/55 121/139/49 55/138/35
f 55/138/35 70/158/34 127/157/55
f 128/159/57 73/123/43 49/122/28
f 49/122/28 72/160/42 128/159/57
f 83/161/58 82/162/59 81/163/60
f 81/163/60 80/164/60 83/161/58
f 84/165/61 86/166/62 85/167/63
f 84/165/61 87/168/64 86/166/62
f 84/165/61 89/169/65 88/170/66
f 88/170/66 87/168/64 84/165/61
f 89/169/65 90/171/67 88/170/66
f 89/169/65 91/172/68 90/171/67
f 80/164/60 81/163/60 93/173/69
f 93/173/69 92/174/69 80/164/60
f 94/175/70 96/176/71 95/177/72
f 94/175/70 97/178/73 96/176/71
f 94/175/70 99/179/74 98/180/75
f 98/180/75 97/178/73 94/175/70
f 99/179/74 100/181/76 98/180/75
f 99/179/74 101/182/77 100/181/76
f 83/161/58 103/183/78 102/184/79
f 102/184/79 82/162/59 83/161/58
f 85/167/63 86/166/62 105/185/80
f 105/185/80 104/186/81 85/167/63
f 86/166/62 87/168/64 106/187/82
f 106/187/82 105/185/80 86/166/62
f 87/168/64 88/170/66 107/188/83
f 107/188/83 106/187/82 87/168/64
f 88/170/66 90/171/67 108/189/84
f 108/189/84 107/188/83 88/170/66
f 90/171/67 91/172/68 109/190/85
f 109/190/85 108/189/84 90/171/67
f 92/174/69 93/173/69 111/191/86
f 111/191/86 110/192/86 92/174/69
f 95/177/72 96/176/71 113/193/87
f 113/193/87 112/194/88 95/177/72
f 96/176/71 97/178/73 114/195/89
f 114/195/89 113/193/87 96/176/71
f 97/178/73 98/180/75 115/196/90
f 115/196/90 114/195/89 97/178/73
f 98/180/75 100/181/76 116/197/91
f 116/197/91 115/196/90 98/180/75
f 100/181/76 101/182/77 117/198/92
f 117/198/92 116/197/91 100/181/76
f 102/184/79 103/183/78 119/199/93
f 119/199/93 118/200/94 102/184/79
f 105/201/80 130/202/95 129/203/96
f 129/203/96 104/204/81 105/201/80
f 106/205/82 131/206/97 130/207/95
f 130/207/95 105/208/80 106/205/82
f 107/209/83 132/210/98 131/206/97
f 131/206/97 106/205/82 107/209/83
f 108/211/84 136/212/99 132/210/98
f 132/210/98 107/209/83 108/211/84
f 109/213/85 133/214/100 136/215/99
f 136/215/99 108/216/84 109/213/85
f 113/217/87 138/218/101 137/219/102
f 137/219/102 112/220/88 113/217/87
f 114/221/89 139/222/103 138/223/101
f 138/223/101 113/224/87 114/221/89
f 115/225/90 140/226/104 139/222/103
f 139/222/103 114/221/89 115/225/90
f 116/227/91 141/228/105 140/226/104
f 140/226/104 115/225/90 116/227/91
f 117/229/92 142/230/106 141/231/105
f 141/231/105 116/232/91 117/229/92
f 82/162/59 99/179/74 94/175/70
f 94/175/70 81/163/60 82/162/59
f 80/164/60 89/169/65 84/165/61
f 84/165/61 83/161/58 80/164/60
f 81/163/60 94/175/70 95/177/72
f 95/177/72 93/173/69 81/163/60
f 92/174/69 91/172/68 89/169/65
f 89/169/65 80/164/60 92/174/69
f 83/161/58 84/165/61 85/167/63
f 85/167/63 103/183/78 83/161/58
f 101/182/77 99/179/74 82/162/59
f 82/162/59 102/184/79 101/182/77
f 93/173/69 95/177/72 112/194/88
f 112/194/88 111/191/86 93/173/69
f 110/192/86 109/190/85 91/172/68
f 91/172/68 92/174/69 110/192/86
f 103/183/78 85/167/63 104/186/81
f 104/186/81 119/199/93 103/183/78
f 118/200/94 117/198/92 101/182/77
f 101/182/77 102/184/79 118/200/94
f 134/233/55 133/214/100 109/213/85
f 109/213/85 110/234/86 134/233/55
f 135/235/107 142/230/106 117/229/92
f 117/229/92 118/236/94 135/235/107
f 134/233/55 110/234/86 111/237/86
f 111/237/86 143/238/55 134/233/55
f 135/235/107 118/236/94 119/239/93
f 119/239/93 144/240/108 135/235/107
f 143/238/55 111/237/86 112/220/88
f 112/220/88 137/219/102 143/238/55
f 144/240/108 119/239/93 104/204/81
f 104/204/81 129/203/96 144/240/108
f 74/124/44 73/123/43 145/241/109
f 145/241/109 146/242/110 74/124/44
f 75/128/45 74/127/44 146/243/110
f 146/243/110 147/244/111 75/128/45
f 76/130/46 75/128/45 147/244/111
f 147/244/111 148/245/112 76/130/46
f 120/132/47 76/130/46 148/245/112
f 148/245/112 152/246/113 120/132/47
f 77/136/48 120/135/47 152/247/113
f 152/247/113 149/248/114 77/136/48
f 128/159/57 79/155/56 151/249/115
f 151/249/115 160/250/116 128/159/57
f 78/153/55 77/136/48 149/248/114
f 149/248/114 150/251/55 78/153/55
f 137/219/102 138/218/101 154/252/117
f 154/252/117 153/253/118 137/219/102
f 138/223/101 139/222/103 155/254/119
f 155/254/119 154/255/117 138/223/101
f 139/222/103 140/226/104 156/256/120
f 156/256/120 155/254/119 139/222/103
f 140/226/104 141/228/105 157/257/121
f 157/257/121 156/256/120 140/226/104
f 141/231/105 142/230/106 158/258/122
f 158/258/122 157/259/121 141/231/105
f 142/230/106 135/235/107 151/249/115
f 151/249/115 158/258/122 142/230/106
f 134/233/55 143/238/55 159/260/55
f 159/260/55 150/251/55 134/233/55
f 143/238/55 137/219/102 153/253/118
f 153/253/118 159/260/55 143/238/55
f 144/240/108 129/203/96 145/241/109
f 145/241/109 160/250/116 144/240/108
f 146/242/110 145/241/109 129/203/96
f 129/203/96 130/202/95 146/242/110
f 147/244/111 146/243/110 130/207/95
f 130/207/95 131/206/97 147/244/111
f 148/245/112 147/244/111 131/206/97
f 131/206/97 132/210/98 148/245/112
f 152/246/113 148/245/112 132/210/98
f 132/210/98 136/212/99 152/246/113
f 149/248/114 152/247/113 136/215/99
f 136/215/99 133/214/100 149/248/114
f 160/250/116 151/249/115 135/235/107
f 135/235/107 144/240/108 160/250/116
f 150/251/55 149/248/114 133/214/100
f 133/214/100 134/233/55 150/251/55
f 153/253/118 154/252/117 122/140/50
f 122/140/50 121/139/49 153/253/118
f 154/255/117 155/254/119 123/144/51
f 123/144/51 122/143/50 154/255/117
f 155/254/119 156/256/120 124/146/52
f 124/146/52 123/144/51 155/254/119
f 156/256/120 157/257/121 125/148/53
f 125/148/53 124/146/52 156/256/120
f 157/259/121 158/258/122 126/152/54
f 126/152/54 125/151/53 157/259/121
f 158/258/122 151/249/115 79/155/56
f 79/155/56 126/152/54 158/258/122
f 150/251/55 159/260/55 127/157/55
f 127/157/55 78/153/55 150/251/55
f 159/260/55 153/253/118 121/139/49
f 121/139/49 127/157/55 159/260/55
f 160/250/116 145/241/109 73/123/43
f 73/123/43 128/159/57 160/250/116
